/* XPM */
static char *_992cacce6a349bf89de79b9cf1db9d7jzEIRFw8YVituriU[] = {
/* columns rows colors chars-per-pixel */
"64 64 233 2 ",
"   c None",
".  c gray24",
"X  c #2D3B4B",
"o  c #324152",
"O  c #38475A",
"+  c #3A424E",
"@  c #3A4D62",
"#  c #3E526B",
"$  c #3D5676",
"%  c #434343",
"&  c #4C4C4C",
"*  c #4A525A",
"=  c #535453",
"-  c #5A5A5A",
";  c #414A59",
":  c #465567",
">  c #465C76",
",  c #535F74",
"<  c #545D66",
"1  c #5C636C",
"2  c #4A6079",
"3  c #576578",
"4  c #656666",
"5  c #6B737A",
"6  c #717171",
"7  c #797A7B",
"8  c #6E6F71",
"9  c #496485",
"0  c #556B86",
"q  c #5E738B",
"w  c #4D6D93",
"e  c #597598",
"r  c #536D92",
"t  c #637284",
"y  c #6E7A8B",
"u  c #697788",
"i  c #737D8C",
"p  c #717A81",
"a  c #657A93",
"s  c #667C97",
"d  c #607FA7",
"f  c #798188",
"g  c #6D839C",
"h  c #758294",
"j  c #7E8996",
"k  c #75879C",
"l  c #7B8798",
"z  c #6B85A4",
"x  c #6E89AB",
"c  c #6A85A7",
"v  c #7C8DA3",
"b  c #728BAC",
"n  c #7489A6",
"m  c #7D93AD",
"M  c #7690AE",
"N  c #6E8DB6",
"B  c #728EB5",
"V  c #6E92BC",
"C  c #7B93B2",
"Z  c #7695BA",
"A  c #7B95C3",
"S  c #7D9CC4",
"D  c #7699C8",
"F  c #7C9CD4",
"G  c #7E9BD9",
"H  c #6F95C2",
"J  c #7CA6D5",
"K  c #7DA1CC",
"L  c #7FA6E3",
"P  c #848484",
"I  c #87888A",
"U  c #858D95",
"Y  c #8B949B",
"T  c #929294",
"R  c #97999C",
"E  c #8393A5",
"W  c #8F99A3",
"Q  c #8798AD",
"!  c #999FA5",
"~  c #959CA6",
"^  c #8397B3",
"/  c #869AB3",
"(  c #849BBB",
")  c #8A9EB6",
"_  c #8A96AA",
"`  c #9BA2AA",
"'  c #99A1A8",
"]  c #95A4B6",
"[  c #93A5BA",
"{  c #9BAABD",
"}  c #9AA8B6",
"|  c #A4A7A9",
" . c #A4AEB8",
".. c #A9B3BD",
"X. c #B1B1B2",
"o. c #8398CB",
"O. c #859BD2",
"+. c #839BDC",
"@. c #899ED7",
"#. c #87A3C5",
"$. c #8AA2C4",
"%. c #88A6CA",
"&. c #95ABC5",
"*. c #9CADC4",
"=. c #93ABCA",
"-. c #98ACC7",
";. c #9CB2CB",
":. c #83AAD3",
">. c #88A8D7",
",. c #8CB3DD",
"<. c #83B3DD",
"1. c #9AB4D6",
"2. c #99AED2",
"3. c #A4B3C4",
"4. c #A1B5CE",
"5. c #A9B9CD",
"6. c #B3BECB",
"7. c #B6BDC2",
"8. c #A2B7D5",
"9. c #A4B9D4",
"0. c #ADBED2",
"q. c #A4BBDC",
"w. c #AABEDD",
"e. c #A2B6DA",
"r. c #B2BEDB",
"t. c #A0AEC2",
"y. c #809FE1",
"u. c #83A3E4",
"i. c #84ADEC",
"p. c #83AAE6",
"a. c #86B3E4",
"s. c #8AB4E3",
"d. c #89B9E4",
"f. c #85B4ED",
"g. c #87BFEB",
"h. c #8BBBEB",
"j. c #85B5E7",
"k. c #92BCE8",
"l. c #86BCF1",
"z. c #8ABBF2",
"x. c #86B4F2",
"c. c #91BFF3",
"v. c #AABEE1",
"b. c #A6BDE0",
"n. c #BCC3CD",
"m. c #B9C2C9",
"M. c #ADC3DB",
"N. c #A9C1D9",
"B. c #B4C2D6",
"V. c #B3C6DC",
"C. c #BBCADD",
"Z. c #B9C6DA",
"A. c #8AC2EE",
"S. c #8EC8EF",
"D. c #9DC4EA",
"F. c #98C6EA",
"G. c #8BC4F1",
"H. c #92C2F3",
"J. c #9AC4F3",
"K. c #96CCF2",
"L. c #A5C3E4",
"P. c #ACC3E4",
"I. c #ABC6E8",
"U. c #ADCBED",
"Y. c #A6CAEC",
"T. c #B2C6E4",
"R. c #B5CAE4",
"E. c #BACDE4",
"W. c #B4CCEB",
"Q. c #BACEEA",
"!. c #B2C6E8",
"~. c #B4D1EE",
"^. c #BDD2EC",
"/. c #BED2E7",
"(. c #A3CBF3",
"). c #ADCFF4",
"_. c #A3CCF8",
"`. c #B3CFF1",
"'. c #ABD3F3",
"]. c #A9D2F7",
"[. c #B3D3F2",
"{. c #BBD5F2",
"}. c #BED9F5",
"|. c #B9D9F8",
" X c #C3C7CA",
".X c #C3CBD4",
"XX c #C3CCDC",
"oX c #CDD5DD",
"OX c #C6D1D9",
"+X c #D1D6DD",
"@X c #D5D9DD",
"#X c #C1CCE6",
"$X c #C2D2E5",
"%X c #CBD5E4",
"&X c #C2D5ED",
"*X c #C5D9ED",
"=X c #CBDAEC",
"-X c #CCD6E7",
";X c #D3DDEA",
":X c #D4DCE5",
">X c #C1D7F0",
",X c #C4DBF3",
"<X c #CBDDF3",
"1X c #C2DCFA",
"2X c #C9DEFA",
"3X c #D1DFF5",
"4X c #D5E1ED",
"5X c #DAE3EE",
"6X c #DEE2E7",
"7X c #CCE1F6",
"8X c #CDE3FC",
"9X c #C7E1FB",
"0X c #D4E2F5",
"qX c #DBE5F4",
"wX c #DCE9F6",
"eX c #D3E6FB",
"rX c #D4EAFE",
"tX c #DBECFD",
"yX c #DDF1FF",
"uX c #E3E7EB",
"iX c #E3EBF5",
"pX c #EAEEF4",
"aX c #E1ECFB",
"sX c #E1E6F0",
"dX c #ECF2F6",
"fX c #E4F2FE",
"gX c #EBF4FD",
"hX c #EDFBFF",
"jX c #F3F4F7",
"kX c #F3F7FC",
"lX c #F4FCFF",
"zX c #FAFEFF",
"xX c #FBFEFF",
/* pixels */
"                                                                                                                                ",
"                                                                                                                                ",
"                                                                                                                                ",
"                                                                                                                                ",
"                                                                                    %                                           ",
"                                                                                    -                                           ",
"                                                                                    4 X                                         ",
"                                                                                    6 %                     % %                 ",
"                                                                                    7 =                   & %                   ",
"                                                                                    P -                 = &                     ",
"                                                                                    P 4               4 &                       ",
"                                                                                    7 8             6 =                         ",
"                                                                                    P P           6 -                           ",
"                                                                                    T T         7 =                             ",
"                                                                                    | X.      I -                               ",
"                                                                              |   7 X.7.7 6 T 4                                 ",
"                        R R ! ! ! ' ` ' ' ! W U U i n i i i i i f i i y y f j ` +X X@XuX X:X.X! ' W W R ! 7                     ",
"                      .XzXzXlXfXwX=X%X%X;XiXaXtX3X#X-X#X#XE.XX#XXXC.B.B.Z.C.=X5XiXxXxXxXxXpXsXqXwXqXwXfXhXhXf                   ",
"                    n.tX6.] ^ m C C ) &.5.r.Z.#X3X3X=X;XqXiXiX:Xn.n.%X4X5X5X4XwXpXkXxXxXkXiX-X0.} E k k v m.wX5                 ",
"                  Y ' 5 t m ;.w.L.L.N.q.w.v.r.r.r.#X3XsX;X:X+X+XoXOXn.n.n.%X5X5XpXzXxXxXkXsX>X#X/.R.;.Q g 3 f } *               ",
"                y t X o @ > q a d c x x z x b d n n &.-XsXuXuXdXpXpXuX:X+X+X%X:X;X4XkXgXtXr.) ( ^ M k a 0 2 O @ y +             ",
"              y / k t 2 X X O : > > 9 w w r r d c m E _ oXkXkXkXjXjXjXjXiX:XXXN.*.3.%XE.;.;.m 0 9 > > # @ @ 0 k v l X           ",
"            j ) n M n n v k 2 : > 9 r r d Z o.o.#./ Q ) } .XgXzXkXkXkXdX.X{ / / [ *.T.9.C c Z B r 9 3 q g C ( Z b n j           ",
"          U *.a d z s t q k / k 9 9 a Z %.$.( / ^ ^ _ E _ ~ X.@XjXpX+X .l i k C ^ ( 9.e.=.S c c z a a a g z M b z a v ~         ",
"        f wX{ -.=.;.;.[ [ [ { B.B.4.V.W.V.N.N.B.N.m.m.6.6.n..X.XuX6Xn..... .;.4.9.9.V.M.q.L.L.=.4.N.[ ) [ ;.;.8.;.{ } :XR       ",
"        :XwXeXrX,X9XrXyXtXyXfXfXtXtXrXeXrXyXhXhXhXhXhXhXzXlXlXlXkXzXzXzXlXfXyXyXtXrXyXrX9X|.|.8XrXrXyXfXrXrX<XZ.C.fXfXlX..      ",
"          iXwXeX*X;.;.L.Q.,X8XeXrX9X1X8XrXrXtXyXfXfXyXiXfXfXfXgXgXgXgXfXfXwXrXeXrXeXtXeX|.|.1X2X8X2X>XQ.T.;.&.] 4XfXhXoX        ",
"          7 hXwXtX,X;.;.q.v.!.W.~.[.{.1.q.E.,X8XeXrXrXtXyXyXfXfXfXfXgXfXfXyXtXrX8X<X7XR.L.[.[.W.P.P.v.9.9.9.;.=XhXlXuX          ",
"            Y zXiXfX&X;.q.N.P.I.I.I.`.b $ e c B Z $.&.;.1.N.P.R.!.r.v.v.8.2.=.$.o.m &.z ( I.P.I.P.P.q.e.8.4.$XgXhXkX            ",
"              | zXfXgXR.q.b.v.I.I.W.`.v.e a c c B Z Z S #.:.>.O.@.O.O.o.o.o.o.o.A B $.m P.!.!.I.P.q.e.e.9.Z.fXgXzX6             ",
"                m.lXfXtXV.w.P.!.W.W.Q.{.#.c N N B Z J ,.,.,.,.,.>.@.+.@.+.o.o.A A A =.2.Q.!.!.!.P.b.q.w.B.tXfXzXU               ",
"                  +XhXaXeXT.T.!.W.Q.Q.{.P.x N V V V :.,.,.<.s.s.u.+.+.+.+.G G A D D 2.W.W.W.!.!.P.v.v.w.7XfXlX`                 ",
"                    wXfXtX<XR.Q.W.Q.^.Q.{.%.V V V K J ,.d.j.l.l.u.u.u.+.+.G G F F S I.{.W.Q.{.W.T.!.v.&XyXhX7.                  ",
"                    4 fXaXtX&XE.^./.#XQ.{.L.Z H H J <.d.h.l.l.L i.i.i.u.u.u.L J :.>.`.Q.Q.Q.Q.Q.!.r.Q.tXfXOX                    ",
"                      p gXtXrX$X^.Q.Q.^.~.}.:.H J J d.A.G.l.L G.i.i.i.i.i.L L J >.,.>XQ.^.Q.Q.Q.W.R.3XaX=X                      ",
"                        Y fXrX7X&X&X&X&X^.}.L.D J A.g.g.G.G.G.G.x.x.x.x.f.f.j.j.>.U.1X&X>X&X#XQ.R.<XrXwX1                       ",
"                          } fXeX<X&X&X&X*X^.}.,.d.A.A.g.G.G.G.L z.z.x.z.f.f.s.s.k.{.<X#X&X&X^./.&XeXtX5                         ",
"                            m.yX7X,X*X*X$X}.}.Y.A.A.g.A.G.G.G.l.z.z.z.z.l.h.k.s.!.&X&X&X*X&X^.&X8XyXj                           ",
"                              XXrX7X*X*X*X}.}.{.k.A.A.A.A.S.A.z.H.H.z.h.c.c.k.L.~.&X<X*X&X&X&X<XtX`                             ",
"                              * =XeX,X*X*X/.*X*XY.F.S.S.S.S.H.J.J.J.J.J.J.D.D.U.&X&X*X*X*X*X,XrX3.                              ",
"                                1 eX9X}.&X*X*X}.|.F.F.K.K.S.F.J._._._.(._.U.I.[.&X-X*X*X,X>XeXB.                                ",
"                                  f rX}.*X^.>X^.}.U.Y.'.'.Y.(.'.].].).).).W.W.}.&X*X*X,X>X7X&X;                                 ",
"                                    E rX~.{.}.^.{.{.Y.'.'.'.'.'.|.{.{.{.[.[.Q.}.>X>X,X*X}.>X1                                   ",
"                                      [ 9X[.{.{.~.{.'.[.|.|.[.|.1X1X1X1X,X[.{.{.}.^.{.^.2Xt                                     ",
"                                        4.|.[.[.[.[.[.{.}.}.,X,X2X2X2X2X,X~.{.{.{.~.U.1Xl                                       ",
"                                          V.{.[.[.W.{.}.,X2X<X<XeXeX0X8X}.~.[.[.[.~.,X)                                         ",
"                                          : W.`.).~.{.}.,X2X3X3XqXwXeX2X~.~.[.[.U.}.;.                                          ",
"                                            0 Q.W.[.{.}.,X3X0X3XiXiXeX<X~.'.[.[.[.N.o                                           ",
"                                              y Q.~.}.}.>X7X0XqXiXwXtX/.~.[.[.~.V.:                                             ",
"                                                v W.[.}.&X7XqXqXaXfX7X~.~.[.~.T.3                                               ",
"                                                  ) E.~.^.*X0XwXwXyX^.W.~.R.R.t                                                 ",
"                                                    { E.^./.4X0XwX0XR.~.I.R.h                                                   ",
"                                                    ; 3.R.E.&X0XtX/.M.T.V.v                                                     ",
"                                                      : 5.R.C.3X7XM.M.V.Q                                                       ",
"                                                        1 5.R.&X/.M.V.]                                                         ",
"                                                          t 0.#XE.E.3.                                                          ",
"                                                            u B.$X6.                                                            ",
"                                                              i 6.1                                                             ",
"                                                                                                                                ",
"                                                                                                                                ",
"                                                                                                                                ",
"                                                                                                                                ",
"                                                                                                                                ",
"                                                                                                                                "
};
