/* XPM */
static char *d1ed639d342f4613859ade1f3e7d019do4SHLo9hkqe6Stj8[] = {
/* columns rows colors chars-per-pixel */
"64 64 222 2 ",
"   c None",
".  c #0E161B",
"X  c #0E181D",
"o  c #0F1617",
"O  c #151515",
"+  c #1A1615",
"@  c #151816",
"#  c #1C1914",
"$  c #13161A",
"%  c #1C1619",
"&  c #13191C",
"*  c #1C1A1A",
"=  c #201617",
"-  c #231C14",
";  c #231C1A",
":  c #2A1D1C",
">  c #281F13",
",  c #351E1E",
"<  c #262116",
"1  c #2D2215",
"2  c #24211B",
"3  c #2C241C",
"4  c #322415",
"5  c #33261B",
"6  c #332A1C",
"7  c #3B2D1D",
"8  c #39241D",
"9  c #3D301F",
"0  c #0E1A21",
"q  c #0F1721",
"w  c #121B23",
"e  c #171D23",
"r  c #271E21",
"t  c #1C2125",
"y  c #262321",
"u  c #2B2523",
"i  c #2B2A29",
"p  c #2D2927",
"a  c #3E2323",
"s  c #332B22",
"d  c #3C2E22",
"f  c #38292A",
"g  c #34312E",
"h  c #3C322C",
"j  c #3C3123",
"k  c #363333",
"l  c #3C3634",
"z  c #3C3834",
"x  c #3C3B3A",
"c  c #44331D",
"v  c #4A391B",
"b  c #513E1D",
"n  c #422E28",
"m  c #433422",
"M  c #453825",
"N  c #4D3C25",
"B  c #43322B",
"V  c #42382E",
"C  c #4C3C2A",
"Z  c #493529",
"A  c #523E26",
"S  c #4A2C34",
"D  c #453B38",
"F  c #563838",
"G  c #512E31",
"H  c #76383A",
"J  c #6C3738",
"K  c #53422B",
"L  c #5A452C",
"P  c #5C492D",
"I  c #564225",
"U  c #4E4238",
"Y  c #594432",
"T  c #5C4A32",
"R  c #574538",
"E  c #5E503B",
"W  c #644D2F",
"Q  c #634E33",
"!  c #66463B",
"~  c #694D38",
"^  c #6B5434",
"/  c #6B5539",
"(  c #6E593B",
")  c #645138",
"_  c #715633",
"`  c #735A35",
"'  c #745C3C",
"]  c #7A5E3A",
"[  c #745935",
"{  c #72572E",
"}  c #7B613D",
"|  c #663B46",
" . c #484745",
".. c #534A44",
"X. c #574F46",
"o. c #555454",
"O. c #585656",
"+. c #5B5A5A",
"@. c #655547",
"#. c #765B44",
"$. c #72424D",
"%. c #7D6442",
"&. c #7B6348",
"*. c #7C6959",
"=. c #5F6060",
"-. c #646464",
";. c #7A797A",
":. c #706F71",
">. c #8B6A3E",
",. c #85683C",
"<. c #A57D34",
"1. c #834A56",
"2. c #826644",
"3. c #856A43",
"4. c #8B6C43",
"5. c #8A6D4B",
"6. c #846D4A",
"7. c #937344",
"8. c #9A7645",
"9. c #92744B",
"0. c #97784D",
"q. c #9B7A4D",
"w. c #9A7849",
"e. c #8D7953",
"r. c #9C7C53",
"t. c #957852",
"y. c #8F7347",
"u. c #A27E4C",
"i. c #A87E4D",
"p. c #A07E50",
"a. c #897664",
"s. c #947E68",
"d. c #B88C35",
"f. c #998657",
"g. c #AA844C",
"h. c #A5824F",
"j. c #B48B4E",
"k. c #A48252",
"l. c #AB8654",
"z. c #AF8A55",
"x. c #AB8959",
"c. c #B68E55",
"v. c #B88E55",
"b. c #B58E59",
"n. c #B88F59",
"m. c #B08550",
"M. c #BB9155",
"N. c #BB925A",
"B. c #B9935A",
"V. c #A8915C",
"C. c #988968",
"Z. c #BC9661",
"A. c #A58C74",
"S. c #AE957B",
"D. c #C29455",
"F. c #C5995B",
"G. c #CC9D5B",
"H. c #C69858",
"J. c #D39F5B",
"K. c #CEA15D",
"L. c #D3A25C",
"P. c #DBA95E",
"I. c #D7A557",
"U. c #E8B25E",
"Y. c #E0AA5D",
"T. c #C59E61",
"R. c #C89D60",
"E. c #CBA364",
"W. c #DBAA63",
"Q. c #D4A663",
"!. c #D1B676",
"~. c #E1AD64",
"^. c #E5B265",
"/. c #EBB564",
"(. c #EEB866",
"). c #EAB468",
"_. c #EAB76A",
"`. c #F5BC65",
"'. c #FCBF65",
"]. c #F4BC69",
"[. c #F9BF6A",
"{. c #F0B764",
"}. c #E2BA73",
"|. c #FDC065",
" X c #F7C26A",
".X c #FCC36A",
"XX c #F9C96E",
"oX c #F6C86F",
"OX c #EBC779",
"+X c #F5CB73",
"@X c #F9CB74",
"#X c #F5CC79",
"$X c #F7C873",
"%X c #F7D27C",
"&X c #FAD27B",
"*X c #FAD076",
"=X c #807F80",
"-X c #888788",
";X c #9A9899",
":X c #B89C83",
">X c #BCA184",
",X c #A9A8A8",
"<X c #B8B9B9",
"1X c #C7A98D",
"2X c #D7B797",
"3X c #F9D583",
"4X c #FBDB86",
"5X c #FBDE8A",
"6X c #F5D887",
"7X c #E7C19D",
"8X c #EDD48A",
"9X c #FBE28D",
"0X c #FCE593",
"qX c #FDE896",
"wX c #FDEA9A",
"eX c #F7E294",
"rX c #C1C0BF",
"tX c #E7C4A3",
"yX c #D7D7D7",
"uX c #C8C9C8",
"iX c #DFDFE0",
"pX c #E3E4E4",
/* pixels */
"                                                                                                                                ",
"                                                                                                                                ",
"                                                                                                                                ",
"                                                                                                                                ",
"                                          o o + < 6 j d 6 ; + O # ; 3 5 3 # @ @                                                 ",
"                                      & @ 1 ^ h.G.W.W.W.W.F.u.4.g.G.Q.W.G.c.4.K < o                                             ",
"                                    @ < } K.]..X|.|..X^.L.P. X.XQ.>.4.G..X|..X/.z.N @ X                                         ",
"                                  @ j c. X|.|.|.|.^.4.v 7 W l./.W.,.c 4 k.].'.'..X~.} < &                                       ",
"                                $ K E.[.'.'.|.|./.^ 4 ( N.r.7 G..X|.~.` c P.`.'.'..XoXf.< o                                     ",
"                              $ A Z.D.`.'.'.|..Xj.W D.'..X<.^ {.|.|..X_.7.L.|.|.|.|.#XeXC.2 X                                   ",
"                            X 7 V.>.!.*X|.'.|.|.U.{.|.|.[.).^..X|.|.|.|.'.`.|. X+X@X9XwXeXe.#                                   ",
"                          0 - k.} f.wXqX3X.X|.]..XXX'.|.|.'.|.|.|.|.|.|.[.|.|.oX9X3X%X6X#XOX_ @                                 ",
"                          $ ` k.P 8XqXqX5X5X#XD.OX&X|.|.|.'.|.|.|.|.|..X|.XX5XeXwX6X+X%XoXM.T.m $                               ",
"                        $ j N.N f.0X6XqX0X9XE.9.0X9X@X@X@XoX.X|.XX.X+X+X+X6X5XOXwX4X|. XXXg.w.k.#                               ",
"                        + 9.9.v }.XX+X0XwX6X` V.wXwX0X%X9X%X4X4X9X%X9X&XXX9X8X8.OX5X X|.|.L.I G.P $                             ",
"                      $ m T.M ,..X|..X%X9XE.v !.4X9X0X@X9X%X9XqXqXqXqX0XXX*X+X[ K.&XXX'.|.{.L >.z.;                             ",
"                      + 4.h.4 K..X'.|.|..X>.I OX|.*X4XoX9X*X%X%X5X%X5X9XXX|. X{ 8..X|.|.'..X,.c Q.N @                           ",
"                    $ 3 E.W L `.'.|.|.|.(.A _ `.|.|.XX|.XX.X.X|.oX|..X|.|.`..X} W  X|.|.'.|.l.> c.,.@                           ",
"                    $ Q E.4 7..X|.|.|.|.K.1 7..X|.'.|.|.|.`.|.|.'.'.'.|.|.|..X4.v ^.|.|.'.|.K.1 } z.2 0                         ",
"                    # q.h.1 G.|.|.'.|..Xu.- c.|.|.|.'.'.|.|.|.|.|.'.|.|.|.|.|.>.4 Q.|.|.|.'.^.m C N.c X                         ",
"                    3 N.] 5 W.|.|.|.|..X} 1 K.|.|.|.'.|.|.|.|.|.|.'.'.|.|.'.|.8.> D.|.'.|.P.v.Q 3 z.P o                         ",
"                  o j G.N 1 L.|..X|.|.].I 4 W.|.'.|.|.|.'.|.'.'.'.'.'.|.|.|.|.i.- g.|.'.|.G.[ } # 9.} &                         ",
"                  $ K B.6 - D..X'.'.|.).M m /.|.|.|.'.|.|.|.|.|.'.'.'.'.|.|.|.m.= 8..X|.|.M.N 2.# ' 5.*                         ",
"                  O ^ 0.- # g..X|.|.|.~.7 N {.|.'.|.|.|.|.'.|.'.|.|.|.|.|.|.|.j.# 4..X|.|.c.6 3.- ) 0.3                         ",
"                  $ / %.# + 7..X|.|.`.J.5 K `.|.|.'.|.|.|.|.|.|.'.|.'.'.|.'.|.c.# ] '.'.|.g.2 %.- P f.3 X                       ",
"                  @ / ( # O [ ].'.|.U.c.3 P `.|.|.|.|.'.'.|.'.|.'.|.`.[.|.|.|.j.= _ '.'..X8.- #.> A r.u X                       ",
"                  o T Q s 2 K L.`.|.P.k.3 P ].|.|.|.`.'.'.|.|.|.|.'.U.I.'.|..Xv.# ^ ].'..X,.- #.3 C t.3 &                       ",
"                  o K Y C d 5 l./.|.L.u.1 K (.|.|.`.I.{.|.'.'.|.|.|.P.M./.'.U.m.# / ).`.{./ - &.s C t.2                         ",
"                  & 6 K E K - 4.P.|.J.k.5 m ~.|.|.(.M.L.|.(.P.`.'.`.H.b.K.P.H.i.# _ ^.Y.L.K 3 5.5 A 6.*                         ",
"                    ; h / %.+ / F.`.J.l.9 6 F.|.|.P.c.M.~.G.M./.'.~.v.c.v.M.M.5.# } W.G.N.d 5 t.5 T ( $                         ",
"                    @ 2 ' 0.2 C c.~.L.c.C 3 h./.'.H.c.c.v.c.c.I.'.J.c.c.n.c.B.' - 3.F.N.k.3 M r.3 ) C &                         ",
"                    & + ^ z.M 1 q.F.G.n.) > w.G.^.M.c.c.c.c.c.D.~.D.c.c.n.c.c.Q > w.v.B.4.# Q f.5 E 3 w                         ",
"                      $ C b.%.- %.v.N.b.%.- 3.v.M.c.b.c.c.c.c.v.H.c.c.b.b.v.n.K 6 x.c.n.( # 3.0.6 V &                           ",
"                      & ; 2.x.s K b.v.c.0.1 ' c.c.c.c.c.c.M.c.v.c.c.c.n.v.v.z.m C c.b.b.K 5 k.9.s ; w                           ",
"                        $ s 9.%.7 r.c.c.z.M L c.c.c.b.c.c.c.c.c.v.b.v.v.c.v.x.6 ' B.c.l.j P B.%.# &                             ",
"                          $ 6 6.P } n.b.n.] m b.M.c.l.9.c.c.c.c.c.v.v.c.v.B.0.7 0.v.b.0.7 0.x.M &                               ",
"                            $ s ) #.r.P W e.M r.c.c.r.P z.n.c.c.v.c.b.c.c.B.2.W n.c.v.%.( t.M & e                               ",
"                              & ; C C y p V K 3.B.B.0.6 0.c.n.c.v.c.c.c.v.c.] 9.b.c.n.5./ 6 @                                   ",
"                                & $ + z o.k < ) t.} 2.- ) c.c.v.c.v.c.c.c.c.u.b.x.r.( d * w                                     ",
"                                    0 e x o.U 3 4 4 5 # 5 r.n.n.n.n.b.z.l.r.5./ C 3 * &                                         ",
"                                        & g X.u b d.b O + m Q Q T K C B s 3 # + & w                                             ",
"                                          e * 1 <.d.c ; # O @ 2 u p k D r % + e                                                 ",
"                                        & @ - { <.v u ..z * @ z -X-X=XO.r % f + w                                               ",
"                                        * 3 6 ,.A % D ....; ; ; u i * O r % F | +                                               ",
"                                      q = F r ; = g l D l + F Z @ O O : | a a | = w                                             ",
"                                    w e k e = r : p l l y - ! d $ ; % f 1.G $ % g e w                                           ",
"                                    .  .rX:.# | $.: y f @ s F : + r % + S | % -.<X .o                                           ",
"                                  t $ r +.-.= F S % % e + Z B + O - n h = S r +.-.; @ 0                                         ",
"                                  & h ..% O + + - n F : * h ; + 5 Y ! n + r ; + 2 R V &                                         ",
"                                  r A.:XD # m F ! #.F : + % = B F B : # p p $ 2 a.S.S.u w                                       ",
"                                q s 2XtXU : ~ ! Z s - % + + : h : O @ g ....k ; a.7X7Xh $                                       ",
"                                  @ C.tXX.= : # % * + + % $ + O % * % k D ..X.k s 1XA.2 w                                       ",
"                                  w ; R h * o.;.,X<X,X;X-X;.;.l # # % k l D ....3 h 3 w                                         ",
"                                    t X @ p -X;XuXyXiXpXyX<XyXrX:.x u y l z D U k $ w                                           ",
"                                          & $ r u k x  .o.o.o.O. .k y O * i k l k e                                             ",
"                                            w ; @.@.R D ; o O o 2 U @.#.@.3 @ 2 & w                                             ",
"                                              * *.>X:Xe.5 &   $ u a.1X1Xs.3 q                                                   ",
"                                              $ # , a , + q     $ ; , , : O w                                                   ",
"                                              $ : J H G &       $ n H H n +                                                     ",
"                                                % , , ; &       $ = , , % w                                                     ",
"                                                  & $ q           w $ q q                                                       ",
"                                                                                                                                ",
"                                                                                                                                ",
"                                                                                                                                "
};
