/* XPM */
static char *_3cb0ca09a2e447fe9645ebd860d1170Ji5cnUtoKef3HBdG[] = {
/* columns rows colors chars-per-pixel */
"64 64 233 2 ",
"   c None",
".  c #12110D",
"X  c #0F181C",
"o  c #151514",
"O  c #1A1615",
"+  c #161916",
"@  c #1B1916",
"#  c #14171A",
"$  c #1A1619",
"%  c #14191C",
"&  c #1B1A1A",
"*  c #0E0F0E",
"=  c #231B15",
"-  c #231D1A",
";  c #291D1C",
":  c #211617",
">  c #331D1B",
",  c #2A2216",
"<  c #26221C",
"1  c #2A231C",
"2  c #272115",
"3  c #31261C",
"4  c #342A1C",
"5  c #3B2D1D",
"6  c #342619",
"7  c #3C321E",
"8  c #0E1A22",
"9  c #121B23",
"0  c #171C24",
"q  c #281D21",
"w  c #122430",
"e  c #2B2522",
"r  c #2D2A2A",
"t  c #272422",
"y  c #342B23",
"u  c #3A2D23",
"i  c #332E2B",
"p  c #382526",
"a  c #3C3124",
"s  c #34312D",
"d  c #3B322C",
"f  c #373127",
"g  c #3D3B3A",
"h  c #3B3735",
"j  c #28323A",
"k  c #46351E",
"l  c #452829",
"z  c #443423",
"x  c #4B3C25",
"c  c #43342B",
"v  c #463A2B",
"b  c #4B3D2A",
"n  c #493628",
"m  c #513D28",
"M  c #482C32",
"N  c #4B3D33",
"B  c #433C39",
"V  c #553837",
"C  c #542B29",
"Z  c #653236",
"A  c #763535",
"S  c #3F403E",
"D  c #4C412E",
"F  c #55422B",
"G  c #5B452B",
"H  c #5C4A2D",
"J  c #584327",
"K  c #534533",
"L  c #5D4B33",
"P  c #57473C",
"I  c #624B2D",
"U  c #6B4F2D",
"Y  c #634E32",
"T  c #674C34",
"R  c #6A5335",
"E  c #735C3B",
"W  c #775C35",
"Q  c #67512F",
"!  c #7D623C",
"~  c #153652",
"^  c #6A3A46",
"/  c #743E4C",
"(  c #5E3942",
")  c #1B476D",
"_  c #2F526D",
"`  c #27465C",
"'  c #4C4B4B",
"]  c #434241",
"[  c #574C45",
"{  c #5D5248",
"}  c #575555",
"|  c #4F4E50",
" . c #6C5B4C",
".. c #675646",
"X. c #735D46",
"o. c #745352",
"O. c #7A6546",
"+. c #796756",
"@. c #5F6A70",
"#. c #666565",
"$. c #777776",
"%. c #706E6F",
"&. c #853A3D",
"*. c #856739",
"=. c #906E2A",
"-. c #A47D30",
";. c #874858",
":. c #8A6D44",
">. c #866B47",
",. c #8E7147",
"<. c #937344",
"1. c #94754C",
"2. c #9C7C4A",
"3. c #9B7945",
"4. c #88715C",
"5. c #977A54",
"6. c #826E58",
"7. c #A17B4A",
"8. c #AB5469",
"9. c #B6576E",
"0. c #B95871",
"q. c #8A7564",
"w. c #937D69",
"e. c #967B65",
"r. c #926B62",
"t. c #A7716C",
"y. c #964F61",
"u. c #AC802D",
"i. c #AB854C",
"p. c #A78249",
"a. c #B38A4D",
"s. c #A98654",
"d. c #B48D53",
"f. c #BA8E52",
"g. c #B58D58",
"h. c #BD9254",
"j. c #BA9158",
"k. c #9B836E",
"l. c #97806D",
"z. c #9C8573",
"x. c #A88D75",
"c. c #B4967B",
"v. c #AA8B77",
"b. c #BCA265",
"n. c #C29554",
"m. c #C99D5A",
"M. c #C49859",
"N. c #D09E5A",
"B. c #CFA05C",
"V. c #D3A45C",
"C. c #DAA85E",
"Z. c #D2A560",
"A. c #DCAB62",
"S. c #D6AE67",
"D. c #CFAE6C",
"F. c #E2AE62",
"G. c #E4B263",
"H. c #EBB464",
"J. c #EDB966",
"K. c #ECB769",
"L. c #F4BB65",
"P. c #FCBF65",
"I. c #F4BC69",
"U. c #FABF68",
"Y. c #E1BF77",
"T. c #D9A26F",
"R. c #DFC57F",
"E. c #FCC165",
"W. c #F7C46B",
"Q. c #FBC26A",
"!. c #F9C56C",
"~. c #F9CB74",
"^. c #F7CB76",
"/. c #FAD37D",
"(. c #F9D278",
"). c #EEC06E",
"_. c #356C94",
"`. c #2E6999",
"'. c #6D7D8A",
"]. c #467597",
"[. c #4489B9",
"{. c #5E94BD",
"}. c #678DA7",
"|. c #5898C5",
" X c #77A6C7",
".X c #71A6CE",
"XX c #619ECC",
"oX c #8A898A",
"OX c #979797",
"+X c #908E8D",
"@X c #B99A83",
"#X c #AE9490",
"$X c #9EA09E",
"%X c #BEA283",
"&X c #A6A8A8",
"*X c #B7B8B8",
"=X c #AEAEB0",
"-X c #C09E83",
";X c #C2A283",
":X c #C7A688",
">X c #D8B18D",
",X c #DCB895",
"<X c #D2AE93",
"1X c #E7B59B",
"2X c #EFB1A0",
"3X c #FAD682",
"4X c #FADA85",
"5X c #FBDD8A",
"6X c #F7D685",
"7X c #F4C99F",
"8X c #ECD093",
"9X c #FBE18E",
"0X c #FBE493",
"qX c #FCE999",
"wX c #F3CAA1",
"eX c #FCCFA5",
"rX c #F7C7A5",
"tX c #FDD1A5",
"yX c #FDD3A9",
"uX c #F6D0A7",
"iX c #EFC6A0",
"pX c #99B5C7",
"aX c #8DB7D3",
"sX c #A9BBC5",
"dX c #98C3DB",
"fX c #BDC3C5",
"gX c #BACBD7",
"hX c #B3D0E4",
"jX c #C7C9CA",
"kX c #D6D8D8",
"lX c #C8D3D8",
"zX c #DFE0E0",
"xX c #EBECED",
/* pixels */
"                                                                                                                                ",
"                                                                                                                                ",
"                                                                                                                                ",
"                                                          . 2 k H Y L x u < o = 3 5 x x k 1 O o                                 ",
"                                                    * + k *.n.F.H.C.m.s.s.1.O.:.2.s.m.C.A.m.2.H = .                             ",
"                                                  . 5 <.H.!.E.P.P.L.N.n.h.h.d.h.n.n.G.L.P.P.P.J.i.x o                           ",
"                                                O J B.E.Q.P.E.P.P.P.H.L.L.V.h.V.L.H.L.P.P.P.P.P.W.C.U O                         ",
"                                              o I A.E.E.E.E.P.P.P.P.P.P.P.P.H.P.P.E.P.P.P.P.P.P.P.E.G.! =                       ",
"                                            O G F.E.P.P.P.P.P.P.P.P.P.P.P.P.E.P.P.P.E.E.E.E.P.P.P.P.E.J.W O                     ",
"                                          o z V.Q.P.P.E.P.P.P.P.P.P.P.P.P.P.P.P.P.P.P.E.P.E.E.P.P.P.P.E.J.I o                   ",
"                                        # , d.Q.P.P.E.E.W.~.W.P.P.W.P.P.P.P.P.P.P.E.P.E.E.P.E.P.P.P.E.E.E.Z.z o                 ",
"                                        o ! I.E.P.Q.!.!.5X5XW.U.P.W.W.P.P.P.E.E.E.E.E.E.Q.P.P.E.P.P.!.E.E.E.d.2 X               ",
"                                      o 5 Z.E.P.L.^.6X4XqX5XW.^.~.3XU.P.P.P.~.I.E.P.E.E./.~.W.P.E.E.~.W.P.E.I.W O               ",
"                                      & X.H.P.G.V.4XqX0X0X6X6X5X5X/.P.P.U.P./.W.P.E.P.W.4X9XW.W.(.~./.~.P.P.E.B.5 o             ",
"                                    # z i.n.L.a.R.0X0Xb.Y.0XqXqX0X^.L.N.I.P.(.6X~.E.P.E.4X0X9X(.0X0X9X4XE.E.H.K.E O             ",
"                                    : E *.h.n.p.5X0XD.Q 8XqX5XqX0XQ.V.*.L.P.(.0X4X!.U.E.4X6X9X0X0XqXqX9XE.P.H.f.j.1 #           ",
"                                  % y 1.Q V.*.S.9X^.W U 6X3X!.5X4XE.2.G L.P.~.qX9XF.n.E.6X).m.9XqX/.0X8XM.W.E.3.g.H +           ",
"                                  % L >.R d.*.^.(.V.6 <.~.G.m./.(.P.W G I.P.~.5X/.a.W I.(.G.Q Y.0X!.^.9XO.C.I.a.! >.& %         ",
"                                X - >.G :.W a.!.!.<.2 n.Q.i.*.Q.W.L.G I I.E.E.W.!.-.I L.!.Z.6 3./.W.W./.O.<.C.m.F ,.y %         ",
"                                % u 1.a ,.J A.E.L.H 5 C.W.I b J.P.K.x Y P.E.P.P.I.E I U.E.M.= D G.W.E.W.2.G Z.f.I E K +         ",
"                                % L O.4 E U I.E.F.5 J I.V., 6 C.P.J.x Y I.P.P.P.I.G *.P.Q.p.O 2 m.h.C.E.h.k B.2.E b E +         ",
"                                @ ! R u m ,.E.E.m.2 W E.3.O = f.E.I.J T U.P.P.P.H.x 7.U.E.! O @ 3.I n.Q.B.6 h.3.E 4 O.- 9       ",
"                              % < 1.b y 5 f.E.E.f.= *.W.R + O ,.P.W.R U U.E.E.P.G.U F.Q.J.F O & c 2 7.Q.C.k i.p.Y , X.y 9       ",
"                              X 5 5.u < 4 V.E.Q.i.2 a.H.z + O Q K.H.>.I Z.C.Z.Z.m.d.A.G.n.1 & @ @ + *.E.H.k 3.h.D < R a 0       ",
"                              # a 5.4 + z G.E.Q.2., h.h., & & 1 m b 4 - 4 3 4 1 3 4 5 a 7 & & @ O O R P.I.x <.m.7 - L v +       ",
"                              # z 1.1 o J J.J.B.E @ z 1 $ & & @ @ @ - < 1 t 1 1 < t < & + & - @ & @ y >.s.b 2.A.5 O K D +       ",
"                              X c ,.< O D <.G 3 @ - < s D B q # u +.w.z.z.k.k.k.l.k.4.B o : f - { [ s < : & H p.y O b K %       ",
"                              # a ,.1 @ O @ 5 < y 4.k.z.x.v.q.D & d w.@X-X;X@X%X%Xl.d - B q.w.[ x.c.x.+.< R m , $ o b b &       ",
"                              % 1 >.1 @ I a.Z.m N @X+.d s h P  .{ - f >X7XwXwX7X,Xc <  .4...d 1 d +.;Xw.1 a.J.d.b o D a %       ",
"                                - X.u ; d.Q.G.z P z.e #.]._ ) j i v  .iXtXtXeXeXeX4.{ s j ` _ _.@.e z.;X; :.U.W.>.& D y 0       ",
"                                + K v @ <.I.A.5 P P #.dX[.`.].|.'.5 @XtXtXtXeXeXyX,Xf #.{.[.`.[.aX$.N c.< R G.C.H O N - w       ",
"                                % 1 b O Y G.Z.3 f r &X XaX` ) |.hXD e.tXtXeXeXeXyXx.f fXaXsX~ `.|.*Xi 4.< L h.a.a & y +         ",
"                                % & e @ a j.h.2 & i fX.XpX` ) ].gX} O.yXtXeXtXeXtX5.] gX X}.~ ) |.gXh  .t K d.,.; & & 9         ",
"                              % y 4 @ @ - :.7.1 - r fXaX].'.`.|.lX' 6.yXtXeXeXeXtXl.S lX{._.'._..XjXh  .- F g.Y o @ &           ",
"                      8 0 $ $ O x ! , O @ F 1.; r e +XhXXXdX|.aXfXs c.yXeXtXeXeXtX;Xy =XdX|.dX|.hX&Xu q.: L 2.e @ @ 9           ",
"              9 9 0 $ &         6 -.x o @ < O.3 i  .s $XpX.XpXjX} N ,XyXeXeXeXeXtXwXP | fXpX XpX&Xh +.w.$ Y R @ @ %             ",
"      9 9 % & &                 2 -.=.. + & a t O  . .y d g B i c @XtXeXeXeXeXeXeXtX:Xb i B B s e ..:X..O v 3 @ 9               ",
"  9 % &                         @ =.-.@ + + @ & @ - +.@Xt.8.e.c.,XeXeXeXeXwXwXeXeXtXyX,X@Xe.r.t.c.<X+.@ & - $ 9                 ",
"9 $                           & + u 7 &   8 $ @ $ o o P @X2XeXyXtXeXtXtXeX>X>X7XeXeXuXyXyXyXrX2Xt.V $ & + & 9                   ",
"%                     $ # # # 9 w 8         9 @ @ O o o q [ w.;X,X7XeXuXuXwXeXeXtXyXeXiX1X;Xe.P p o & + @ +                     ",
"+           & & & 9 # 0                       9 % + & + + o $ q a P ..6.4.q.w.5.4.+...K d ; $ $ o o & @ & 9                     ",
"q 0 0 % & 9 0 0                                 9 & 0   9 % - M q o . o O O O O o # O ; p : : q & S - + %                       ",
"                                                  0 w     9 l ;./ l o o < c M p = O @ V ;.V O $ %.*Xs o X                       ",
"                                                    w     $ ^ 8.8.;.V : o u V T V p : O p M o | *X$.& < - %                     ",
"                                                          $ ;.8.9.0.9.;.l : : M V m N u : @ @ ] ' & - ..+.: 8                   ",
"                                                        8 : ;.8.0.9.9.9.8.Z $ : 1 u c c n l q o @ 3 ..:X@Xt 9                   ",
"                                                        # q y.9.0.0.0.9.8./ M / p $ ; p z n n @ f w.;X,X4.&                     ",
"                                                        $ @ p M ( ^ / / / ^ M ;.^ p O o $ p n : 1 4.c.4.3 9                     ",
"                                                      X & ' g r q : @ : $ $ O $ O @ & q r r $ o & & e - 9                       ",
"                                                      % i *XkXjX*X&X+XoX+XoXoX+XOX&XOX*XjX=X$.t 9 9 8 9                         ",
"                                                      8 e oX*XjXkXjXfXzXxXxXxXxXkXkXjXjXjX&XOXr 8                               ",
"                                                        # o t r h ] | } #.#.#.#.} | ' g i q & $ 8                               ",
"                                                          8 o O t t - o o o * o o : > > @ #                                     ",
"                                                          % O ; ; t q $ 9     X O C &.A : 8                                     ",
"                                                          % $ A A Z > %         # @ > ; +                                       ",
"                                                            + l A C : X           8 # 8                                         ",
"                                                            8 $ O O %                                                           ",
"                                                                                                                                ",
"                                                                                                                                ",
"                                                                                                                                ",
"                                                                                                                                ",
"                                                                                                                                ",
"                                                                                                                                ",
"                                                                                                                                "
};
