/* XPM */
static char *_a2e4f263b8a472887ff5a810239c7dfPcmRnifFoLEC5iR2[] = {
/* columns rows colors chars-per-pixel */
"64 64 232 2 ",
"   c None",
".  c #19140F",
"X  c #0F161A",
"o  c #0D1618",
"O  c #151514",
"+  c #1B1614",
"@  c #161816",
"#  c #1B1915",
"$  c #14161A",
"%  c #1A1619",
"&  c #14191C",
"*  c #1C1A1A",
"=  c #241A0D",
"-  c #231C13",
";  c #2A1E13",
":  c #241D1B",
">  c #2A1B1D",
",  c #211519",
"<  c #381E1E",
"1  c #2D2214",
"2  c #26211C",
"3  c #2B231C",
"4  c #2B251A",
"5  c #322415",
"6  c #31261A",
"7  c #35291C",
"8  c #3A2C1C",
"9  c #3B2B14",
"0  c #3D311C",
"q  c #0E1A23",
"w  c #0E1A27",
"e  c #131B22",
"r  c #151923",
"t  c #2E1C21",
"y  c #221F22",
"u  c #361E22",
"i  c #172227",
"p  c #122332",
"a  c #242422",
"s  c #2B2927",
"d  c #342C23",
"f  c #372A26",
"g  c #3D3229",
"h  c #3C3225",
"j  c #3C3937",
"k  c #322F34",
"l  c #43291C",
"z  c #44321B",
"x  c #48381E",
"c  c #46262A",
"v  c #433423",
"b  c #4A3A24",
"n  c #4D3C2A",
"m  c #443829",
"M  c #523E24",
"N  c #513F29",
"B  c #482E33",
"V  c #532E37",
"C  c #453C36",
"Z  c #58333B",
"A  c #562B2D",
"S  c #663031",
"D  c #6D3132",
"F  c #5B452A",
"G  c #5C492C",
"H  c #584327",
"J  c #5D4D3D",
"K  c #564537",
"L  c #4B4336",
"P  c #644C2C",
"I  c #654926",
"U  c #6C532C",
"Y  c #624D32",
"T  c #6B5332",
"R  c #6B5639",
"E  c #745934",
"W  c #735C3B",
"Q  c #7A5C37",
"!  c #70542C",
"~  c #7E633C",
"^  c #11324F",
"/  c #233648",
"(  c #693944",
")  c #703A48",
"_  c #5D3A43",
"`  c #33536A",
"'  c #29445A",
"]  c #494747",
"[  c #5A4C42",
"{  c #575558",
"}  c #514F52",
"|  c #75414E",
" . c #6A5849",
".. c #7C4652",
"X. c #6E5E4D",
"o. c #796448",
"O. c #766554",
"+. c #596269",
"@. c #586978",
"#. c #7B7A7A",
"$. c #6C6A6C",
"%. c #9A423F",
"&. c #83653C",
"*. c #87673A",
"=. c #916E3D",
"-. c #913F40",
";. c #8B4959",
":. c #944449",
">. c #8C6D44",
",. c #846A44",
"<. c #8D7147",
"1. c #937244",
"2. c #9C7A45",
"3. c #9C7B4B",
"4. c #92764A",
"5. c #9D7E54",
"6. c #86705A",
"7. c #A27D4B",
"8. c #A07A46",
"9. c #A27F53",
"0. c #954F61",
"q. c #985162",
"w. c #8A5160",
"e. c #A35266",
"r. c #AA566B",
"t. c #B5576D",
"y. c #B85971",
"u. c #8C7664",
"i. c #987B67",
"p. c #A4776D",
"a. c #9F8154",
"s. c #A4824D",
"d. c #AB854D",
"f. c #A48353",
"g. c #AA8554",
"h. c #AB8859",
"j. c #B48C54",
"k. c #B58E5A",
"l. c #B88D56",
"z. c #BC9255",
"x. c #BA935A",
"c. c #B09255",
"v. c #9E856D",
"b. c #9E8874",
"n. c #A88D75",
"m. c #AC937A",
"M. c #B5997B",
"N. c #B39564",
"B. c #C59C5C",
"V. c #CB9D5B",
"C. c #C49657",
"Z. c #CD9B55",
"A. c #D3A45C",
"S. c #DEA95C",
"D. c #D7A85E",
"F. c #CDA35E",
"G. c #E3AD5F",
"H. c #E8B15F",
"J. c #CEA361",
"K. c #D6A661",
"L. c #DBAB62",
"P. c #D6A764",
"I. c #D2B675",
"U. c #E2AE63",
"Y. c #E4B264",
"T. c #EDB965",
"R. c #EEB969",
"E. c #EBB768",
"W. c #F3BB65",
"Q. c #FCBF65",
"!. c #F4BD69",
"~. c #FABF69",
"^. c #F2B663",
"/. c #FCC065",
"(. c #F7C36C",
"). c #FBC26A",
"_. c #F8C66D",
"`. c #FAC572",
"'. c #F9CA73",
"]. c #F8CC77",
"[. c #F9D37C",
"{. c #FAD47B",
"}. c #EEC674",
"|. c #386589",
" X c #577892",
".X c #487FA7",
"XX c #4D92BF",
"oX c #4B86AF",
"OX c #5394C1",
"+X c #6AA4CB",
"@X c #878686",
"#X c #9A999B",
"$X c #B69A83",
"%X c #A09E9E",
"&X c #BEA184",
"*X c #A4A49E",
"=X c #A8A5A6",
"-X c #B2B1B3",
";X c #92ACBE",
":X c #C4A689",
">X c #C7A788",
",X c #DDBC9A",
"<X c #D5B492",
"1X c #C8AB90",
"2X c #EEB79B",
"3X c #C39982",
"4X c #F9D682",
"5X c #FBDD8A",
"6X c #F8D885",
"7X c #E7C29D",
"8X c #EAD28B",
"9X c #FCE08C",
"0X c #FCE594",
"qX c #FDE995",
"wX c #FDEA9A",
"eX c #FDEA9B",
"rX c #F7E498",
"tX c #ECC7A2",
"yX c #F4CDA4",
"uX c #FCCDA6",
"iX c #F6C7A5",
"pX c #FDD1A6",
"aX c #FDD3AA",
"sX c #95B7CF",
"dX c #9EC2D8",
"fX c #A9C1D1",
"gX c #C8C8C9",
"hX c #D7DADA",
"jX c #CCD2D1",
"kX c #D2E2EA",
"lX c #E9E9EA",
"zX c #C1D8E3",
/* pixels */
"                                                                                                                                ",
"                                                                                                                                ",
"                                                1 5 1                                                                           ",
"                                      l T >.d.z.C.V.V.z.g.<.U b 1 - + . o o                                                     ",
"                                  Y 7.K.T.)././././././.)./.~.U.V.k.s.&.G 8 # O                                                 ",
"                            . v ,.C.S.^.Q././.Q././.Q.Q./.Q.Q.Q./.)./.Q.W.S.s.G - o                                             ",
"                      v E ,.>.g.C.G.W.Q.Q.Q.Q.Q.Q.Q.Q.Q.Q.Q.Q.~./.Q.Q.Q.Q./.).}.N.H # X                                         ",
"                  0 1.A.A.V.D.A.G./.Q.Q.Q.Q.Q.Q./././././.Q.~././.Q.Q.Q.(.`.4X0XqX8Xo.- X                                       ",
"                F B.!.Q.^.~.Q.Q.Q.Q.Q.Q.Q.Q./././././././.Q./.Q./._._.(.].0X0XwXwXqX8Xa.: X                                     ",
"            . I D.).Q./.Q./.Q.Q.Q.Q.Q.Q.Q.Q.Q././././._._.'.'.).].9X5X'.6XwXwXqXwXqXeX8X<.# &                                   ",
"          O b K.).Q.Q./.Q._.`.!.'._.'.].[.[.[.'./.Q.`.5X0X0X9X'.[.eXwX5X6XwXwX6XrXwXeXwX8XU @                                   ",
"        o 1 j.Q./.Q.Q.Q.Q.[.6X[.9X'.6XwXwXwXwX4X/./.].qXwXwXwX[.].0XwXqXqXwXwXI.a.rXwX9X[.J.8 &                                 ",
"        O Q !.).Q././.Q.(.6XwXqX0X'.5XwXeXeXwX[.Q./.[.qXqXwXeX6X(.9XwXeXeXwXqXI.G I.'./.W.(.*.*                                 ",
"      $ 6 B./.Q.Q./.Q././.5X0X6X[.`.5XeXeXwXwX[.Q./.6XqX5X0XeX9X(.6XqX0X9X6X].R.H =././.W./.D.0 &                               ",
"      O U R.Q./.Q././././._._.(._._.6XqX8XI.0X[././.6XqX].].9X{._._.'._._././.!.T H }.(././.(.E @                               ",
"    X - d./.Q././.Q././.W.z.G./.S.S.`.].4.N.{._./.)._.'./.W.(.(././././././.Q.).=.9 D././././.d.2 e                             ",
"    O 8 P.).Q./././././.2.*.!.(.=.S.).C.H Y./.Q./././.Q.Q.Z.W.Q././././.Q.Q.Q.).j.; z./.Q.Q./.P.0 X                             ",
"    O P !././.Q./.)./.z.z z.).D.U H.Q.Q U ~./.Q././././.^.=.H.).Q./.Q.Q./.E.Z.).V.5 7.).~.Q.Q.!.P &                             ",
"    O ~ Q.Q.Q.Q././.E.F I T.).7.U !.G.z =.)./.Q././././.S.I D./././.).Q.).7.I W.G.z =.).Q.Q.Q.).&.@                             ",
"  e # <.).Q.W././.).d.; 2./.!.U &._.z.5 s././././././.).V.z V.).Q./.Q.Q.W.F 6 A.W.H *.~.Q.Q.Q.).s.* e                           ",
"  e # 1.!.H.S./.Q.W.P 7 D.).H.z 1.`.2.= z./././././././.j.= k.)./.Q./.).P.7 + 3.~.Q 1.).).Q.Q.).d.2 q                           ",
"  e * <.Y.Z.F./.Q.J.6 P (./.B.5 d._.*.1 F./.S.U././.Q.).2.= 1._.Q.R.U.U.j.: O H P.>.4.L.U.Y.Y.W.c.# q                           ",
"  q # >.C.j.V.Q.).f.= 1./.).g.= C.).E 6 D.).8.z././.~.).*.. n ,.T M z 8 3 @ O , 7 6 6 8 l v b M b # q                           ",
"  & # ~ z.j.C.W.).Q - s.!.).1.1 V.~.P 6 L.~.U d.)./.Q.~.E + + - a f C L K C 6 + O % s C C s O $ & i w                           ",
"    @ R k.k.C.^.K.M d g.W./.~ 1 J.~.P 7 L.(.H 2./.Q.Q.!.Y # [ u.b.m.$X$X$X$Xb.O.L 3 - 6.$X[ $                                   ",
"    @ K k.l.l.D.j.7 N l.T.).E 1 A.!.U 5 L.Y.0 *._./.Q.!.F # u.&XM.&Xv. .C K [ O.i.b.6.m.1X[ $                                   ",
"    @ h g.k.l.z.9.6 K j.^.!.T 5 K.).E 1 D.P.9 W /././.R.H # m.7XtX$Xg j +.` ' / 6 J 1XpXtXK $                                   ",
"    & 1 <.l.j.k.9.7 3 >.T.T.F 5 K.).&.1 F.B.8 H T.Q./.T.H 1 >XaX7XF L jXsXOXOX.XoXk X.yX,Xm X                                   ",
"      # Y k.d.5.9.v : Y Y.Y.G 1 V.).>.; k.C.v z Y.Q.Q.T.H - :XaXM.3 =XkXOX+XdX` oX+.m 2X1Xs &                                   ",
"      & 7 a.f.~ h.Y 7 v A.Y.Y ; B.~.7.; 3.x.H 5 V.)./.!.F - :XaXu.k jXzXOXXX@.^ |.@.h ,XM.* q                                   ",
"      e @ Y h.P 5.5.n 3 j.Y.W = k.!.j.h W x. .- s.)./.!.P = M.aX5.s jXkXOXOX X^  X+.m tXM.2 i                                   ",
"        e 4 ,.K R k.W , ,.L.,.# 1.R.z.G G k.<.; Q !./.~.E # n.aX:X3 @XlXsXOX.X.XsXj X.yX:X3 e                                   ",
"          @ h J 7 4.5.3 H B.4.; E L.x.<.N k.f.h b U.Q.).*.O v.aXiX .s *XjXsXsXfX#.4 $XaX,Xh &                                   ",
"          i @ 3 * n h.o.v g.g.h n x.C.1.N s.h.v - C./.).2.+ o.yXpX,X .7 j ] L j d 6.yXpX,Xg r                                   ",
"            i * % + F f.&.3.k.G h f.k.R v 9.k.C . &.(.).c.= J yXpXpXtX>Xm.p.u.p.3XyXpXpX:X3 r                                   ",
"                & % @ F a.k.k.o.1 >.k.N + R h.G O b Y./.K.6 v 7XpXpXuXpXuX2X2X2X2XuXaXtXX.$ w                                   ",
"                  e # # m <.k.h.v T h.v O - W W # - 8.).Y.b 4 >XpXpXpXuXuXuXiXiXuXuX<XO.# e                                     ",
"                    r @ @ 3 T f.o.b 5.h # # 3 m # # 8 x.(.E # v.aXpXpXpXuXaXiX7X&X6.h & q                                       ",
"                      p p i @ 8 J m o.m % @ % @ @ # + 0 z.a.= K m.m.n.i.u.O.[ m 2 & q                                           ",
"                            i & @ - f f * @ @ 2 * @ @ O 6 J : % - * + + O $ X r w                                               ",
"                                  & @ & * % ] #.y O > f , % + % +.%X#X] $ e                                                     ",
"                                        & # k s O > ( q.( , + + g #XhXjX{ & q                                                   ",
"                                        r & < : % B ;.t.e.c % B > * ] #.$.: q                                                   ",
"                                        r : ..c , ) q.y.y.Z + ) 0.Z u , % % w                                                   ",
"                                      q O c ;.t y V ( ) ) B + V r.r.e.;.c %                                                     ",
"                                      r O ( ..% $ $ O % * * + c e.r.y.y.-.% w                                                   ",
"                                    q $ * ..( % { @X@X%X=X%Xs u e.y.y.y.q.t w                                                   ",
"                                    $ $ t 0.S + j $.@X=X=X@Xy u e.r.t.t.r.k r                                                   ",
"                                  & @ % < w.| % % @ * * * % O V r.) ;.y.e.Z $                                                   ",
"                                  r % $ % t t % [ O.O.O.O. .# f | u _ ) V > $ X                                                 ",
"                                  & % & @ @ % 2 n.1X>XI.>X$Xd O + + $ * s j y r                                                 ",
"                                  & * @     * - n.yXiXtXaX1X3 s #.@X#X-XgXgXj $                                                 ",
"                                q s r O *   a O g i.<X,X:XK + #.lXlXlXhXgX=XC &                                                 ",
"                                r m C : # # @ % $ % s h 4 @ * { $.{ } C k r % w                                                 ",
"                                r j ] j d & e O O * y : * * % O . O $ O & q                                                     ",
"                                w f C k a e   & O : > 2 2 2 * % > < t $ q                                                       ",
"                                  r a & e     e . A D D S S < + S -.c @                                                         ",
"                                                . c %.%.%.:.< , S D < $                                                         ",
"                                                $ % < c c l , O % , O q                                                         ",
"                                                  $ $ $ $ O &                                                                   ",
"                                                                                                                                ",
"                                                                                                                                ",
"                                                                                                                                ",
"                                                                                                                                "
};
