/* XPM */
static char *f28152a9ea2b4503bd40ce50600312b0fLRTnZjFgOGGM5CR[] = {
/* columns rows colors chars-per-pixel */
"64 64 225 2 ",
"   c None",
".  c #18130F",
"X  c #0F161C",
"o  c #0E1519",
"O  c #151414",
"+  c #1A1614",
"@  c #1C1915",
"#  c #13161A",
"$  c #191619",
"%  c #14191C",
"&  c #1C1A1A",
"*  c #161916",
"=  c #221A14",
"-  c #231B1A",
";  c #261A17",
":  c #341D1C",
">  c #21180E",
",  c #1F201F",
"<  c #2C2215",
"1  c #2D241B",
"2  c #27231A",
"3  c #322516",
"4  c #34291B",
"5  c #3B2D1B",
"6  c #352918",
"7  c #3E301D",
"8  c #0D1B23",
"9  c #0D1B25",
"0  c #131B22",
"q  c #191D20",
"w  c #311D22",
"e  c #2D1D20",
"r  c #182129",
"t  c #0F2026",
"y  c #242322",
"u  c #2B2522",
"i  c #2D2A25",
"p  c #2D2A2B",
"a  c #342B23",
"s  c #3C252A",
"d  c #362927",
"f  c #3A322A",
"g  c #3B3837",
"h  c #202F39",
"j  c #44321D",
"k  c #49361C",
"l  c #523D1F",
"z  c #442829",
"x  c #582A2A",
"c  c #433522",
"v  c #463823",
"b  c #4C3B23",
"n  c #42342C",
"m  c #493A29",
"M  c #533E23",
"N  c #533E27",
"B  c #482C33",
"V  c #582E33",
"C  c #433932",
"Z  c #4A3E33",
"A  c #56313A",
"S  c #6B2F31",
"D  c #693335",
"F  c #554125",
"G  c #55432B",
"H  c #5D492C",
"J  c #5C4626",
"K  c #54453B",
"L  c #5A4939",
"P  c #4D433A",
"I  c #644D2C",
"U  c #624C32",
"Y  c #684F30",
"T  c #6B5535",
"R  c #6A5739",
"E  c #745A34",
"W  c #795E3B",
"Q  c #755B37",
"!  c #6B532E",
"~  c #7D623C",
"^  c #796039",
"/  c #14324F",
"(  c #313F48",
")  c #413F40",
"_  c #693B47",
"`  c #3E4144",
"'  c #3D4D55",
"]  c #484948",
"[  c #555351",
"{  c #6D5B4A",
"}  c #655444",
"|  c #655E59",
" . c #784350",
".. c #7B6755",
"X. c #7B6443",
"o. c #676666",
"O. c #787776",
"+. c #6F7678",
"@. c #50697B",
"#. c #803B3B",
"$. c #83663B",
"%. c #8B6B3D",
"&. c #84673B",
"*. c #907236",
"=. c #8E3E40",
"-. c #9B4241",
";. c #904C5C",
":. c #856A45",
">. c #8D6D41",
",. c #846743",
"<. c #926F41",
"1. c #8D7046",
"2. c #947343",
"3. c #997343",
"4. c #9B7A4D",
"5. c #96774A",
"6. c #836E5B",
"7. c #826A55",
"8. c #8A735D",
"9. c #9B7D54",
"0. c #A27D4A",
"q. c #A47B47",
"w. c #A07F51",
"e. c #A35467",
"r. c #B85971",
"t. c #B3586E",
"y. c #897462",
"u. c #927C66",
"i. c #985162",
"p. c #9B8152",
"a. c #A9834C",
"s. c #B48B4E",
"d. c #AA8554",
"f. c #AC8953",
"g. c #A98657",
"h. c #B58E55",
"j. c #B98E55",
"k. c #B48D59",
"l. c #B98F58",
"z. c #BC9255",
"x. c #BD9359",
"c. c #B69158",
"v. c #998069",
"b. c #998673",
"n. c #A48B74",
"m. c #B5987C",
"M. c #A98F77",
"N. c #B4A16A",
"B. c #CA9D5B",
"V. c #C59857",
"C. c #CDA15B",
"Z. c #D4A45D",
"A. c #DAA65D",
"S. c #DAA95E",
"D. c #E3AC5E",
"F. c #C69C61",
"G. c #D2A462",
"H. c #DCAB63",
"J. c #D5A868",
"K. c #D3AC67",
"L. c #E3AE62",
"P. c #E5B264",
"I. c #EAB465",
"U. c #ECB669",
"Y. c #EEB969",
"T. c #EDB767",
"R. c #F2BA66",
"E. c #FCBF65",
"W. c #F5BD6A",
"Q. c #F9BF6A",
"!. c #F0B565",
"~. c #FDC165",
"^. c #F5C36C",
"/. c #FCC26A",
"(. c #F9C96F",
"). c #F6CB73",
"_. c #FACB74",
"`. c #F8C973",
"'. c #FAD27B",
"]. c #F7D07A",
"[. c #35668D",
"{. c #52758F",
"}. c #4784B3",
"|. c #6786A1",
" X c #5596C2",
".X c #4C92C1",
"XX c #639CC3",
"oX c #76AACD",
"OX c #878787",
"+X c #969495",
"@X c #B69981",
"#X c #BEA284",
"$X c #ABA9A9",
"%X c #B7B8B9",
"&X c #839DB0",
"*X c #C7A787",
"=X c #D4AF8F",
"-X c #D8B695",
";X c #E8AF9A",
":X c #F7BBA1",
">X c #FAD682",
",X c #FBDA85",
"<X c #FBDE8B",
"1X c #F7D884",
"2X c #E5C19D",
"3X c #EED68D",
"4X c #FCE28E",
"5X c #FCE494",
"6X c #FDEA9A",
"7X c #FDEA9B",
"8X c #FDE898",
"9X c #EDE096",
"0X c #EBC5A2",
"qX c #EFC9A4",
"wX c #F5CAA6",
"eX c #FDD1A5",
"rX c #FCD3AA",
"tX c #D7C483",
"yX c #96BDD6",
"uX c #9CC0D8",
"iX c #A8C9DD",
"pX c #C5C5C5",
"aX c #D1D6D9",
"sX c #DEE5E4",
"dX c #E6E7E6",
/* pixels */
"                                                                                                                                ",
"                                                                    O O O . . O O O                                             ",
"                                                        o o o . < 7 H ^ 2.3.3.%.E b < O O                                       ",
"                                                  # * = 7 H ^ %.j.L.W.Q./././.~.^.I.B.2.v * o                                   ",
"                                                * 3 E f.H.^.W./.~.~.E.E.E.E.E.~.E.~.E.I.B.^ - # o                               ",
"                                            # & T B.W./.~.~.E.E.~.~.E.E.E.E.E.E.E.E.E.!.H.x.2.J c < O                           ",
"                                          # 2 p.3X<X).~.~.~.E.E.~.~.~.~.~.~.~.~.~.E.E.E./.L.V.V.z.k.~ 1 O                       ",
"                                        # 1 g.5X7X6X5X>X~.~.E.E.E.~.~.~.E.E.~.E.~.E.E.E.E.E.I.R.P.V.H.x.v O                     ",
"                                      X & 5.9X6X6X6X7X8X)._.'.).~.~.~.~.~.~.~.~.~.~.~.~.~.~.E.E.~.A.^ s.F.b O                   ",
"                                      * R 3X7X7X6X8X8X5X].5X7X,X^.,X1X].).~.~.~.(./.^./.~.~.E.^.~.~.C.J ,.k.5 o                 ",
"                                    8 4 F.4X6X6X4X1X8X5X5X6X6X'._.6X7X7X,X~.~.].4X4X5X,X(.'.).).).~./.V.7 Q :.@                 ",
"                                    $ ~ ).).1X4X).).8X6X6X7X6X_.'.7X7X7X4X~.~._.6X7X7X8X).<X4X<X1XE.~.~.f.6 T n #               ",
"                                  # 1 B./.E.~./.^.).4X6X6X7X5X).,X7X6X8X5X/.~._.6X6X7X6X).>X8X8X<X/.E.~.Q.>.< m &               ",
"                                  O H W.E.E.E.~.Z.V.(.].,X4X,X/.<X6X1X4X5X`.~._.8X9X7X7X]._.).<X1XE.~.W.E.U.H & & %             ",
"                                  @ 4./.E.E.~./.<.q.~.E.~.^.~.~.'.>X/.].4X(.~._.4XN.tX4X).!.~.W.!.~.E.E.E./.V.3 @ %             ",
"                                X < B./.E.E.~.U.J q./.~.~.~.~.~.E.R.!./.^./.~.~.(.z.&.^.!.V.~.P.a.T.~.E.E.E.E.Q @ %             ",
"                                X v P.~.~.~.~.C.5 z.~.~.~.~.~.~.~.D.V.~.E.E.~.~.~.S.l C.Q.3.H./.%.*.Q.~.E.E.~.B.6 % q           ",
"                                X Y W.~.~.~./.a.5 Z.s.R.~.~.~.~.~.Z.3.E.E.~.~.~.~.Y.F 2./.3.q./.V.k C.E.E.E.E.W.E O r           ",
"                                * &./.~.~.E./.%.J J.l z.~.~.~.~.~.V.! R.E.E.~.~.~.E.T I Q.d.E E.I.N W Q.E.~.E.~.s.= %           ",
"                                @ 3./.~.~.~.Q.Q Q V.; &.~.~.~.~.~.j.l I.E.E.~.~.~.~.$.k U.z.l P./.%.5 S.~.~.R.E.L.c *           ",
"                                @ a.~.~.~.~./.%.2.5.O H W.~./.~.~.a.6 S.~.~.~.~.E./.>.5 H.C.j C./.z.< a.~.~.D.D.Y.U *           ",
"                                @ f.I.P.S.S.H.4.:.F . v F.S.P.R./.&.< V.~.~.~.D.A./.<.3 S.H.j a./.P.7 E W.~.A.V.H.T %           ",
"                                @ f v f 5 6 6 1 2 @ O $ 3 6 j H ~ v = z.~.~.E.B.4.(.2.3 Z.P.j 2.~.U.I k I.E.A.j.V.T $           ",
"                                t % % $ f P f @ O $ a P K Z f u @ @ @ a.~.E.~.z.E ^.%.6 G.I.k $./.I.W 6 C.~.C.k.k.H %           ",
"                                    r & O.M.m + C ..M.@X@Xm.M.n.u.P = 0.~.~.~.s.J Y.$.5 L.T.b E Q.I.<.; q.W.V.k.k.G %           ",
"                                      @ y.*X7.u.b...} ] } y.@X@X#X..@ 5./.~.~.a.b U.W k I.T.M I W.I.4.1 $.G.z.j.g.c %           ",
"                                      * v.rX0X6.p h ( ' ` u v.2X-Xv.= 2.~.~./.%.j J.I H !.R.F H W.D.g.5 R x.k.l.w.1 0           ",
"                                      * ..rXm.p @.}.}. XaX+.f =XrX#X@ 2./.~.~.W j B.M R !.U.F F T.D.k.N R k.l.l.:.-             ",
"                                      # } rXy.` |.[.yX XyXaXg u.rXm.@ >.^.~.Y.H v g.v >.I.T.M G I.A.j.T E g.w.l.U %             ",
"                                      # K qX..] {./ |..XoXdX| { rXm.= 3./.~.P.k G 5.M g.D.I.j G L.Z.j.,.,.5.4.w.d q             ",
"                                      X Z 0X..] {./ {. XoXdX| { rXn.= q././.Z.< R ,.W c.H.H.5 Y L.V.j.w.9.Q 4.W > 0             ",
"                                      o K qXn.f &X[.}. XiXdXC u.rXv.= a.~.~.h.= :.2.d.h.A.C.3 Q J.V.k.j.d.N 5.f %               ",
"                                      o { rX-X7 OXuXoXuXsXOXa =XrX8.= h.~./.$.2 4.k.h.h.A.f.; :.G.h.h.j.R m U q t               ",
"                                      # ..eXrX8.i o.+.+.[ 2 u.eXeX..2 V.~.W.F 4 d.x.4.f.B.>.2 5.V.h.h.4.5 a 2 0                 ",
"                                      # { wXeX;X8.L A L { M.wXeXwX} 1 H.~.G.3 c g.f.H 4.x.R 5 g.z.j.g.G $ @ 0                   ",
"                                      t f -XeXeX:X;X;X0XeXeXeXeX2Xm k P.~.0.+ m g.X.< :.k.F G k.j.g.L @ % q                     ",
"                                      t % ..2XrXwX:X:XwXrXeXeXeX-X1 H W.W.! . H 9.4 * ^ g.5 X.x.g.U - @ 0                       ",
"                                        9 % } *XwXrXrXrXeXeXeXeXm.= >./.h.; + K v @ * R 1.v g.p.G = $ q                         ",
"                                          0 # e } u.#X-X2X0XwXwX8.@ f.G.k O @ 2 O @ @ R R R X.a % r r                           ",
"                                              8 # $ - a n Z K K i 6 9.M $ @ + & i & & U f a - % r                               ",
"                                                    9 9 # O , p @ 2 1 O $ + + e OX] $ - = @ &                                   ",
"                                                        0 y +X+X& @ $ @ $ A A $ y u $ = J *.4                                   ",
"                                                        O o.pXo.$ ; z = s e.e.B O $ $ + c J 2                                   ",
"                                                      0 # p g @ w _  .$ _ r.e._ + d s @ f u 9                                   ",
"                                                        # ; $ z i.r._ + =.r.e._ : w B O @ q                                     ",
"                                                        $ n 1 w e.t.B - s _ A s - - - $ $ %                                     ",
"                                                        $ 4 d + _ e.s - p r - q q $ + d = #                                     ",
"                                                      9 # = u @ ; _ w ) pXpX$X+Xo.$ ; n $ X                                     ",
"                                                      % & - $ - - - & p O.+X|.| g @ z d # 9                                     ",
"                                                      % u B $ + d 1 + & @ > > @ % $ u @ $ 0                                     ",
"                                                      0 O ; O O ; f @ f 6.....y.{ - + + $ 0                                     ",
"                                                      % [ ] f u $ + . } -X=X-X-X@X- ( OXg o                                     ",
"                                                    0 & $XsXpX$XOX] % Z ;XrXrXrXv.+ OXdX] o                                     ",
"                                                    8 & O.$XpXpX%XpXo.= { *X#X..1 , o.| y 0                                     ",
"                                                      0 % q p g ) ] g % O - - O O $ $ % 0                                       ",
"                                                          # # $ $ O $ a d f n C 2 O q                                           ",
"                                                            # > : ; $ s C C f d - # 9                                           ",
"                                                            # s =.S . : x x x V - 8                                             ",
"                                                            # : #.D ; z -.=.-.S + %                                             ",
"                                                            0 $ ; ; = : S S S 6 %                                               ",
"                                                                8 # % # $ $ $ %                                                 ",
"                                                                                                                                ",
"                                                                                                                                ",
"                                                                                                                                "
};
