/* XPM */
static char *e7090daccf404c18a84d46e08f53aaadNpBPUEr2DKeKnGGo[] = {
/* columns rows colors chars-per-pixel */
"64 64 192 2 ",
"   c #00131A",
".  c #001A1F",
"X  c #041725",
"o  c #051E25",
"O  c #091C25",
"+  c #061E28",
"@  c #0D1F29",
"#  c #101E27",
"$  c #042125",
"%  c #072329",
"&  c #0B252C",
"*  c #0D292E",
"=  c #12252D",
"-  c #1E252C",
";  c #12292E",
":  c #192A2E",
">  c #0D2632",
",  c #0E2A31",
"<  c #132730",
"1  c #192730",
"2  c #132C33",
"3  c #1A2D34",
"4  c #162D39",
"5  c #1C2E38",
"6  c #153136",
"7  c #1B3136",
"8  c #163239",
"9  c #1C333A",
"0  c #1D393E",
"q  c #20272D",
"w  c #21282E",
"e  c #242E33",
"r  c #263135",
"t  c #22343D",
"y  c #22393E",
"u  c #1C3440",
"i  c #1D3B41",
"p  c #1E3E49",
"a  c #243640",
"s  c #293742",
"d  c #243B43",
"f  c #2A3D45",
"g  c #253E49",
"h  c #2B3F49",
"j  c #1D4346",
"k  c #1F4548",
"l  c #244146",
"z  c #2B4246",
"x  c #26434A",
"c  c #2B444B",
"v  c #2C494E",
"b  c #32454E",
"n  c #334A4E",
"m  c #2F4651",
"M  c #2D4B51",
"N  c #344751",
"B  c #334C53",
"V  c #394D55",
"C  c #364E58",
"Z  c #3B4F59",
"A  c #2E5256",
"S  c #2C5159",
"D  c #345156",
"F  c #3A5156",
"G  c #355359",
"H  c #3B545B",
"J  c #3C595E",
"K  c #355661",
"L  c #3D5661",
"P  c #375E65",
"I  c #3D5B62",
"U  c #3D5F69",
"Y  c #3B6365",
"T  c #3D6069",
"R  c #3E696F",
"E  c #42555D",
"W  c #415B5F",
"Q  c #455761",
"!  c #425C63",
"~  c #4A5E67",
"^  c #455E69",
"/  c #485E6B",
"(  c #446166",
")  c #4A6266",
"_  c #45636A",
"`  c #4B646B",
"'  c #42696D",
"]  c #4D696E",
"[  c #51656C",
"{  c #51696E",
"}  c #4D6671",
"|  c #466871",
" . c #4D6C72",
".. c #4E6F79",
"X. c #556771",
"o. c #536D74",
"O. c #586C73",
"+. c #516D78",
"@. c #596F7A",
"#. c #467175",
"$. c #4C7275",
"%. c #4D737A",
"&. c #537176",
"*. c #5A7276",
"=. c #55747A",
"-. c #5A757B",
";. c #55797D",
":. c #5A797E",
">. c #62767F",
",. c #617B7F",
"<. c #567780",
"1. c #567C82",
"2. c #5C7C82",
"3. c #637E83",
"4. c #687C85",
"5. c #657F89",
"6. c #5E8186",
"7. c #5E8489",
"8. c #638286",
"9. c #698287",
"0. c #64848A",
"q. c #6A858B",
"w. c #658A8D",
"e. c #6B8A8E",
"r. c #71868F",
"t. c #718A8F",
"y. c #66908F",
"u. c #668790",
"i. c #668C91",
"p. c #6C8D92",
"a. c #6E8F99",
"s. c #728E93",
"d. c #7A8E97",
"f. c #728F99",
"g. c #7B8F98",
"h. c #679194",
"j. c #6D9295",
"k. c #6E9499",
"l. c #6E999C",
"z. c #729296",
"x. c #75969A",
"c. c #71969C",
"v. c #72979D",
"b. c #76979C",
"n. c #74959C",
"m. c #73959A",
"M. c #79939A",
"N. c #78939C",
"B. c #79979F",
"V. c #79959A",
"C. c #70989A",
"Z. c #72989B",
"A. c #719999",
"S. c #75989A",
"D. c #71989D",
"F. c #729A9D",
"G. c #75989C",
"H. c #76999D",
"J. c #749A9D",
"K. c #74999F",
"L. c #779A9E",
"P. c #769C9F",
"I. c #73999C",
"U. c #789B9D",
"Y. c #789B9F",
"T. c #7C999F",
"R. c #7D9C9F",
"E. c #7B9A9D",
"W. c #7597A0",
"Q. c #7397A0",
"!. c #7997A1",
"~. c #7896A0",
"^. c #719AA0",
"/. c #769BA3",
"(. c #769AA2",
"). c #719CA2",
"_. c #749DA1",
"`. c #769DA2",
"'. c #759BA1",
"]. c #799AA2",
"[. c #789EA1",
"{. c #7E9DA2",
"}. c #799BA4",
"|. c #789DA5",
" X c #7B9DA2",
".X c #7DA0A5",
"XX c #80999E",
"oX c #819BA1",
"OX c #81A3A7",
"+X c #80A1AA",
"@X c #89A4AB",
"#X c #90A7AF",
/* pixels */
"X B / +.2. .+.2.1.<.=.%.......| R #.R P Y T I K u > 4 > g I L +.<.#.#.$.$.$.$.$.;.#.$.;.$.$.;.;.} y * & 2 0 k v S S K U I P S p ",
"4 H / 5.f.f.f.W.}./././.(./.|.|.l._.F.k.k.u.+.Q C 4 > a H } ..u._.c.k.Z.A.A.l.l.c.j.Z.P.S.Z.m.j.&.v 2 8 v ( ;.1.6.7.a.u.0.a.5.K ",
"h L / f.z.n.j.A.Q.Q.c.c.c.c.^.c._.A.j.y.a.a.-._ / g + g G =.q.E.H.Z.c.Z.P.Z.A.A.m.S.H.S.m.[.H.q.) F & 6 J ;.S.z.h.m.].m.u.!.u.m ",
"9 C _ ].f.H.m.U.Q.l.l.k.m.c.k.c.[.j.y.e.p.b.f.0.} L > d c ] V.M.m.m.c.S.H.S.H.H.Y.H.H.z.m.oXm.3.W ! ; l { e.R.z.c.0.a.f.a.a.2.x ",
"8 B ( R.z.S.z.A.A.A.A.A.I.S.U.U.A.y.z.z.z.S.z.9.O.` d 0 n J S.V.V.m.b.b.c.M.c.z.z.M.z.a.d.B.p.} C E ; z ] s.R.y.S.q.e.z.a.f.2.B ",
"0 B J e.S.R.A.A.A.A.S.A.c.z.A.z.z.e.s.S.t.t.t.,.` E t t J F e.oXm.V.Y.m.z.z.s.s.f.z.M.d.p.s.3.! n F ; z J 9.t.e.e.z.s.q.r.d.2.m ",
"7 n F O.e.S.S.R.S.S.S.S.V.S.z.z.z.9.s.E.t.z.XXt.F F 2 0 F F { 9.s.M.B.V.f.M.M.z.M.M.V.t.-.-.o.Q F V 7 n F e.z.t.e.V.z.r.M.s.X.B ",
"9 F n n E F W { &.*.,.,.9.9.r.r.,.{ ,.q.,.9.e.*.F ` 9 7 n E v F ( ] o.o.o.-.3.-.&.o.X.H 9 5 d i z y 7 F D e.t.z.t.z.t.s.XX3.F B ",
"e y y t 9 9 0 7 y 0 7 y z z z z y t 0 l y y z v z F 0 6 n z * 0 6 6 6 6 8 8 6 3 8 4 6 8 0 7 4 3 9 ; y F W ] 8.R.s.t.S.t.{ y 7 z ",
"= : 3 3 7 7 7 7 7 y y 0 6 : 7 7 9 y y t 7 6 6 ; * 6 & . 6 * . & * * , > * * * * 6 2 2 , , 2 3 8 * ; l v l 0 0 v :.9.8.) y ; : 7 ",
": 3 5 3 ; 2 2 2 $ * 6 : 7 7 r 7 = 5 5 @ ; 7 j l k A D A D A M G G G G G D D D B v l i 4 6 2 2 6 7 2 6 2 6 6 i j j z j ; 6 y y ; ",
"[ O.O.{ { ] ` _ ) ) W n n z t $ & < 5 u n W ( &.&.;.,.,.;.:.2.3.2.2.1.1.2.1.:.:.8.2. .I M i , $ % 0 0 0 j 6 , $ * 6 y 6 ; : y F ",
"4.9.q.q.u.u.u.0.8.8.5.2.3.3.o.! u 1 N [ 5.u.2.0.w.8.w.y.0.p.a.p.j.j.j.j.j.e.h.p.2.2.2.2.6.*.Y D M =.2.5.<.U G x , * * * ; j ) t.",
"n.n.n.a.k.).k.a.k.c./.Q.p.2.+.} N 4 C <.r.f.0.p.S.j.S.A.m.c.b.m.S.P.P.F.P.Z.A.Z.S.H.S.j.w.=.G j T 2...1.u.2.2.=.' G j % ; v ) ) ",
"c.^.k.i.h.l.h.h.k.k.).).i.%._ ^ L 4 C } =.a.a.a.Q.^.H.H.W./.Q.H.Z.l.Z.Z.Z.A.Z.Z.Z.P.Z.w.;.' A i U 2...u.|.n.p.6.;.7.&.v 7 n { ,.",
"k.k.k.h.h.).).).).h.k.).k.1.| _ Q 4 L } } u.k.p.l._./.I.^.c.l._.l.Z.l.A.l.A.F.l.k.F.l.7.$.Y A x M u.a.}.+Xu.c..XH.c.=.z * j ) ,.",
"k.^.I.l.k.l.l.l.j._.k.j.[.w._ Y ! i x I ;.j.j.i.p.h.h.h.j.j.k.j.Z.l.l.Z.Z.P.P._.j._.7.7.;.Y Y j K ..a.~.m.b.].m.OX0.I G & o c } ",
"k.c.Z.k.k.l.l.A.w.Z.A.S.[.2.J H g 0 v M ! i. XY.j.j.h.j.h.h.i.w.w.w.0.w.w.w.h.i.j.A.6.7.%.Y P i I  .e.B.z.f.M.j.m.0.I v 6 d H ] ",
"n.H.H.c.A.k.A.j.U.[.U.U.V.&.D B C g l c H 9.V.s.].Y.].H.S.c.A.A.c.A.m.m.S.H.T.B.A.z.e.f.$.D G 0 v ! 0.M.z.V.T.B.m.z.Q i 2 c H H ",
"a.z.m.z.z.S.m.c.A.e.e.z.z.-.H C F 3 9 N ! @.q.M.d.M.M.N.m.E.V.V.V.M.V.V.V.V.N.N.s.e.B.Y.` v B i x H 3.M.z.f.z.s.s.V.J 6 2 M Q Q ",
"t.S.S.S.S.E.R.E.S.z.V.XXz.{ E n N e s E N h E 4.r.r.s.s.z.d.z.M.d.d.d.d.g.g.g.g.*.O.4.r.~ V V u c H -.f.z.V. X XB. X` c 7 c H Q ",
",.*.,.:.&.&.&.&.e.y.t.,.) V n F E s h h t 5 t h s s d a d d f g f f h h h h h N V h V Q Z E V 1 c M I } &.:.0.p.3.q.` H c c N Z ",
"z z z y 0 0 7 8 z M n z 7 t z V N t 9 t 5 h h s h f h h f a i d t t t s a a a t a 5 t t h E m 3 h i d g d i g l c c x C c V H N ",
": 7 7 7 6 7 0 9 6 7 0 7 3 y t ; N e s 5 1 5 t s d a y 9 9 9 8 8 9 t 9 4 5 < < < 5 5 5 < 9 c h 7 7 , 2 7 0 0 0 7 0 9 7 c a b h 3 ",
": 7 r 6 7 9 6 9 6 6 6 6 7 7 7 3 4 2 < 2 ; 2 6 6 , * , , , , 6 , > 2 , , * $ X   $ % * , , 2 2 , * * , 2 2 , , 6 , 4 7 3 9 d 4 y ",
"7 ; ; ; ; 6 & * 6 6 6 7 9 0 t 0 u u i g l l i 0 v v v v v v v v M M D D G G D D D D D D G D B M c c x x x l i 0 i 6 , * , > = 3 ",
"2 ; n F C C I _ ) ) ] $.+.&.@.=.$.$.=.<.1.1.;.;.;.;.;.;.;.1.1.:.:.:.;.:.:.:.:.6.2.:.:.:.;.=.&.&.=.-.-.-.;.=.=.o. .( J ! H z 2 2 ",
"2 7 { 8.<.o.<.1.;.;.;.:.3.2.5.5.0.w.w.7.w.w.e.h.w.w.7.w.w.w.e.w.j.j.a.p.j.p.j.h.j.j.h.e.i.w.w.w.8.3.0.8.8.0.8.8.i.0.8.e.3.E g > ",
"2 2 ^ 5.u.a.a.2.Z.Z.Q.^.W.W.W.W.Z.Z.A.j.j.l.Z.Z.F._.P._.[.[.[.[.h.j.j.A.Z.Z.Z.Z.c.k.k.z.k.k.c.m. XB.V.m.S.z.A.z.j.z.w.e.-.^ H 8 ",
"> 4 U <.u.W.(.Q.|..X|.|.|./.Q.Q.h.j.k.k.l.j.y.w.j.l.k.k.A.j.j.i.j.p.z.A.c.A.A.k.z.j.z.h.j.j.z.z.m.m.a.p.i.e.p.i.H.[.M.z.=._ ( d ",
"> p | ....2.i.k.l.c.(.Q.Q.c.a.a.c.Z.I.P.A.A.k.j.Z.A.F.E.S.S.z.A.j.m.z.j.j.p.w.e.p.j.p.p.p.p.p.p.w.e.e.j.j.j.j.z.j.I.c.R.;.D G 8 ",
"> k U / <.Q.Q.).l.^.^.c.Q.l.c.k.H.I.I.k.k.A.k.Z.A.j.Z.c.A.j.i.e.j.j.f.j.p.p.z.p.p.j.p.j.z.j.p.z.w.e.h.j.A.j.h.h.i.i.j.U.=.v D 0 ",
"* l (  .=.y._.Z.A.[.[.j.w.w.k..XA.S.S.S.A.A.A.A.U.S.z.z.j.j.z.s.p.h.e.j.z.j.z.j.S.j.e.w.8.8.8.8.y.y.A.A.j.y.y.z.y.z.e.z.*.D D 0 ",
"* v ` &. .q.[.e.A.y.y.y.j.A.A.S.z.s.z.A.z.z.z.s.t.y.y.t.e.e.e.y.z.z.z.e.y.e.e.y.8.8.8.w.y.j.z.z.A.y.y.A.A.A.j.y.y.z.e.XX8.n n 7 ",
"& y F J D ,.OXA.A.A.z.A.U.[.U.E.E.XXXXoXXXXXV.M.S.S.g.z.z.z.M.M.z.z.t.t.s.s.s.z.z.z.z.s.t.e.e.e.y.t.y.8.e.z.t.e.XXXXt.S.,.E n 0 ",
": r n F F =.V.p.e.z.z.S.z.e.s.s.t.t.t.r.e.9.8.3.9.3.3.3.3.,.4.8.4.8.9.9.9.9.t.t.t.t.d.g.V.XXXXXXt.E.S.8.,.9.z.XX,.,.{ *.) F F y ",
"; = h E E Q ) F v v n A v c B n z z z z d f a y r y y y a f z d g a f f z z n n E E Q ~ [ [ O.O.*.*.{ n y y z z z z y y r n n e ",
": = e b V h y 7 y 7 7 7 9 9 9 9 t t t t r t t t t r y y a h f z f s s t y y y y 5 5 t 9 r 9 5 5 7 r 7 7 r z y y 7 r 7 : 7 z z : ",
"e 5 3 t c f 7 9 0 7 7 7 0 0 7 3 3 7 6 3 4 5 5 5 5 5 9 9 9 9 9 y t t a t t t r r 5 t t t y a s y y y r t r t : = y r y 0 7 y 7 ; ",
"O 3 = : d 7 + % o * 8 7 2 2 8 0 i 0 y y y 9 9 5 2 1 3 ; 2 2 , * = ; < < < < < < < < < < < * 2 = : : 6 7 7 : 7 t : ; : 6 $ $ $ 6 ",
"m u i 3 2 & 2 , * G ! ! _ ` o.&.=...=.=.o.-.@.O.` 4 2 8 % l x x M C H I I ! ! I ! I I H J I H H F 7 ; % & 5 2 2 6 * 0 j l z v v ",
"2.3.2.I G M x * i +.3.0.z.i.i.0.z.j.j.M.d.p.3.-.} x B } Y =.$.=.2.2.:.-.=.2.2.:.&.:.:.=.-.2.=._ I F J n 3 2 < 7 ; y W :.8.6.1.;.",
"0.k.n.=.=.} K 8 k } <.0.b.W.]./.P.I.^.b.b.q.=._ C u G 2.<.6.1.7.0.w.0.6.8.0.0.7.8.p.i.0.i.n.0...' ! _ J c z 7 , ; l ( 8.A.y.y.A.",
"^.c./.m.k. .G i u I } 2.c.b.H./.h.k.k.c.W.u. .^ U x I n.c.c.k..Xh.k._..X|..X|.|.^.[.].c.I..X^.i.w.;.=...` ` B 7 0 A ( :.y.y.y.l.",
"/.a.f.W.~.` x k > C _ 5.W.k.u.u.i.i.u.a.b.q.} ^ M u M u.m.k.h./.<.i.k.I.l.l.c.l.^.^.I./.I.I.I._.S.z.V.3./ Q M d 7 B ! 3.P.A.A.Z.",
"0.0.p.u.f.} M g > m I <.p.7.0.p.k.l.i.p.n.<.L Z m g M u.W.k.k.l.i.k.^.c.k.k.c.H.h.p.h./.I.h.p.c.c.S.m.o.B x 9 9 3 B C -.A.z.A.j.",
"a.b.W.s.d.} m h d C Q } -.+.5.n.k.^.a.m.n.-.G Z h g m q.m.u.w.p.l.Q.c.m.k.m.k.c.c.c./.]././.c./.m.m.z.o.B N f t 9 Z N *.M.s.S.z.",
"p.a.f.a.g.^ g m d Z Z ^ / C L =.=.7.5.q.f.@.Z L d m N 0.m.p.m.[.l.m.k.c.W./.c.i.c.H.k.h.k.I.c.j.j.m.b.o.N N h a 1 Z N -.T.p.d.p.",
"d.r.d.XXs.~ b h s Z h a C B N B B G C Q D Q N B 9 C v 3.Y.Y.z.c.A.z.j.A.k.A.Z.U.A.A.A.A.A.z.A.Z.P.j.c.o.M C N t 5 Z Z O.V.M.p.z.",
"r.q.5.4.*.^ N h 9 B h d b c c c B B d v c G c d 9 B v 2.Y.H.c.Z.j.A.S.A.A.A.z.k.z.j.z.A.A.A.A.j.H.j.k.o.c G Z t t b h W s.V.s.p.",
"d.d.4.` F B x 7 + 0 7 8 a 9 9 d 6 i 0 g 0 d 9 4 7 M v 2.Y.S.Z.H.A.z.A.S.z.z.z.e.z.j.j.z.z.e.z.z.A.h.A. .m B N t 5 h t C q.m.f.M.",
"l M C c l g 0 2 9 B M B H G G F G ( _ ! D c 0 * 8 M v =.m.c.I.S.S.S.z.e.e.e.p.z.z.e.z.e.s.j.e.j.j.e.k.o.c B C 9 1 h a g F D M M ",
"l g i i i j l v ( o.&.2.0.3.8.:.8.3.:.-.3.&.G 6 8 v v &.S.j.S.Z.z.z.e.q.q.e.s.z.e.e.z.j.p.s.p.a.j.w.A.o.c B M 9 & d i l c v M A ",
"j 8 6 0 j v I &._ &.=.0.j.f.m.p.w.0.0.:.0.3._ v , x A  .m.i.m.j.e.e.e.z.p.p.p.p.z.s.e.s.s.p.s.p.j.i.m.&.v D M 9 2 0 6 6 8 8 8 8 ",
"'  .;.8.1.=.] $.;.6.6.j.z.p./.c.[. XOXs.w.-.( c , l A ] m.w.c.e.p.p.j.z.m.a.a.p.p.a.z.j.p.z.a.p.p.p.m.=.v M M 8 * i d v D H R Y ",
"w.w.h.j.h.h.h.A.F.P.I.H.j.w.A.i.j.j.S.w.m.0. .x * l B | m.q.f.w.m.k.j.a.p.p.a.m.j.a.m.j.a.j.z.f.z.p.Y.=.M M v 7 B ` -.2.6.3.w.6.",
"Z.Z.S.S.P.I.Z.I.k.k.c.k.A.c.S.H.j.A.A.Z.Y.0.G v , x x ] @X-.m.M.f.j.z.j.y.e.h.h.z.j.j.y.j.j.A.A.p.0.V.2.M M B 8 ! I ( 2.w.X. .6.",
"c.c.Z.c.Z.Z.H.S.[.P.U.S.Z.A.k.k._.U.Z.k.S.q.H c % u c H M.q.2.-.e.i.j.j.j.j.z.j.A.j.z.j.z.y.e.y.T.q. X&.c G c 9 ! ` ` ] :.w.z. X",
"A.z.c.S.c.c.m.c.e.h.z.c.m.m.S.Z.P.k.k.z.Y.e.I c i g B c 3.@X3.2.6.8.e.j.j.z.z.j.e.e.j.e.z.e.e.e.:.3.@X=.c L x B ! } -._ -.V.z.M.",
"a.p.j.z.z.z.j.z.S.S.m.Y.m.m.A.z.Z.k.H.U. Xt.^ v 3 d B N o.#Xr.s.:.8.q.e.t.s.e.t.E.E.E.U.S.s.z.s.O.q.oX} c B c F L H =.o.3.z.-.0.",
"t.p.p.z.a.s.s.p.z.z.a.j.z.z.z.V.k.y.S.m.a.2.^ N * h b V V ~ V V y z z z z z z n n n J ) { -.4.4.r.g.>.H b m B c F c ^ _ =.0.o.q.",
"J J J J J I J J ! ! ( ` } =.2.3.$.R $. .( ^ C N y V h b t = # = e 7 : : : : : : w : : w : 5 e t E X.E N N h b 9 B B W F ! X.I ` ",
"M c v B c B B M M v v c c m v M v j A M x c h h 3 a 1 9 1 ; t y r r e r e e r r e r e r r r e e @ e t h b f h 5 c H H N B B c g ",
"x l c x x c x x x c x c c v c v M j M M l c f a 3 < 1 1 3 3 3 w - q - - - - q w q q q w w w q 1 e O # 5 s b 9 2 c N z c v g c N "
};
